<?xml version="1.0" encoding="utf-8"?>
<!-- Generator: Adobe Illustrator 27.8.1, SVG Export Plug-In . SVG Version: 6.00 Build 0)  -->
<svg version="1.1" id="레이어_1" xmlns="http://www.w3.org/2000/svg" xmlns:xlink="http://www.w3.org/1999/xlink" x="0px"
	 y="0px" viewBox="0 0 300.3 113.7" style="enable-background:new 0 0 300.3 113.7;" xml:space="preserve">
<style type="text/css">
	.st0{fill:#1A1A1A;stroke:#000000;stroke-width:5;stroke-linecap:round;stroke-miterlimit:10;}
	.st1{fill:#E6E6E6;}
	.st2{stroke:#000000;stroke-width:1;stroke-miterlimit:10.0009;}
	.st3{fill:#FFFFFF;stroke:#FFFFFF;stroke-width:0.5;stroke-miterlimit:10.0009;}
	.st4{fill:#4D4D4D;}
	.st5{fill:#2D2D2D;}
	.st6{fill:#828B00;}
	.st7{fill:#A9D000;}
	.st8{fill:#BED000;}
	.st9{fill:#DBF53F;}
	.st10{fill:#ADB900;}
	.st11{fill:#6B7926;}
	.st12{fill:#A1B538;}
	.st13{fill:#ADE700;}
	.st14{fill:#F9FF6A;}
	.st15{fill:#F7FF45;}
	.st16{fill:#D0FF00;}
	.st17{fill:#618B00;}
	.st18{stroke:#CFDE50;stroke-miterlimit:10;}
	.st19{font-family:'DungGeunMo';}
	.st20{font-size:74.4574px;}
	.st21{stroke:#C16FAA;stroke-miterlimit:10;}
	.st22{fill:none;}
	.st23{fill:#020202;stroke:#F2F2F2;stroke-width:0.1;stroke-miterlimit:10;}
	.st24{font-size:18.6144px;}
</style>
<g id="레이어_1_00000036211282129681533940000015861805675274938791_">
</g>
<g>
	<rect x="2.7" y="34.1" class="st0" width="286.2" height="74.5"/>
	<g>
		<g>
			<g>
				<path class="st1" d="M262.8,78.2c0.9-3.2,3.9-13.5-1.5-24.2c-1.9-3.8-4.1-6.2-5.6-7.9c-3.1-3.4-6.8-7.4-9.5-6.7
					c-4.1,1-2.3,10.7-5.5,11.2c-3.2,0.6-8.4-9.5-8.7-13.1c0-0.1,0-0.2,0-0.4c-0.1-1-0.5-3.2-1.8-5.6c-0.2-0.4-0.4-0.7-0.8-1.1
					c-3-3.6-8.9-5.2-11.3-5.8c-3.3-0.8-4.1-0.6-7.4-1.6c-0.1,0-2.3-0.7-4.8-2.1c-1.4-0.7-1.9-1.2-2.3-1.6c-0.4-0.4-1.7-1.9-1.4-3.5
					c0.2-1.2,1.2-1.9,1.6-2.2c2.7-2,5.4-0.2,8.3-1.7c1.8-1,1.5-2,3.7-4.4c0,0,2.5-2.7,6.8-4.5c9.6-4.1,26.9,6.4,31.9,10.1
					c1.1,0.8,4.7,3.5,10.2,6c0.5,0.2,2.1,1,3.8,1.5c6.7,2.2,14.1,0.5,21.4,3.5c4,1.6,8.1,4.6,7.7,6.2c-0.6,2.1-8.7-1.2-13.1,2.2
					c-6.4,4.9,3.8,16.3-1,33.7c-0.5,2-2.5,7.1-6.5,17.4c-1.7,4.3-4,7.9-3.7,13.3c0.1,2.4,0.8,3.6,0.6,6.5c-0.3,4.1-1.9,9.2-4,9.2
					c-2,0-3.9-4.4-4.6-6.2c-2.1-5.1-1.4-8.2-3.3-9c-1-0.4-1.4,0.3-5.2,1.2c-1.9,0.4-3.4,0.8-5.1,0.8c-3.7,0-7.9-1.7-7.9-3.1
					c0-0.9,1.7-1.6,4.7-2.7c2.1-0.8,2.8-0.8,4.3-1.5c0,0,2.4-1,4.8-3.1C258.7,87.6,260.9,84.9,262.8,78.2z"/>
				<path d="M261.7,77.9c3.2-10.4,1.3-22.1-6.3-30c-1.9-2-3.7-4.1-5.7-5.7c-0.8-0.6-1.9-1.4-2.8-1.4c-3.2,0.7-1.1,9.9-5.4,11.2
					c-3.4,0.9-5.6-2.8-7.2-5.1c-1.6-2.6-2.9-5.1-3.6-8.1c-0.3-2.2-0.7-4.5-1.9-6.5c-3-4.5-9.2-5.8-14.3-6.9c-4-0.7-7.9-2.2-11.2-4.6
					c-3.8-3.2-3.1-7.9,1.8-9.4c2.8-0.8,5.3,0.5,7.2-1.5c0.6-0.9,1.5-2.6,2.4-3.5l-0.1,0.1c1-1.2,2.1-2.1,3.4-3
					c8.3-6.7,19.8-2.5,28.2,1.5c8.2,3.7,15.1,10.2,24,12.5c3.6,1.1,7.2,1,11.2,1.5c4.1,0.4,8.8,1.4,12.5,3.6c3.1,1.7,9.2,6.2,5,10
					c-1.5,0.9-2.2,0.8-3.5,0.8c-12.5-1.3-11.6,1.5-9.5,12.2c1.6,8,1.4,16.9-1.9,24.5c-1.9,5-3.9,9.8-5.9,14.8
					c-1.1,2.5-2.3,4.8-2.9,7.2c-0.6,2.5-0.7,4.8-0.1,7.3c0.8,3.7-0.4,13.4-4.8,14.3c-3.7,0.4-6-6-7.2-8.7c-0.8-1.9-1.1-4.5-1.8-6.2
					c0,0,0,0,0.1,0s0.2,0,0.1,0s-0.4,0.1-0.7,0.2c-3.4,1.1-6.9,2.1-10.5,1.8c-2.9-0.2-10.6-2.4-7.6-6.5c1-1.1,2.4-1.5,3.7-2
					c1.7-0.7,3.9-1.2,5.6-1.8c2.8-1.2,5.4-2.9,7-5.7C260.1,82.9,261.3,80.4,261.7,77.9L261.7,77.9z M263.9,78.6
					c-0.1,0.3-0.3,0.6-0.4,0.9c-0.7,2.3-1.5,4.6-2.6,6.7c-1.9,3.7-5.8,6.6-9.8,7.9c-1.1,0.4-2.5,0.9-3.6,1.4
					c-0.8,0.4-1.7,0.7-2.3,1.2c-0.2,0.1-0.1,0.2,0.1-0.3c0.1-0.5-0.1-0.6,0-0.5c0.5,0.4,1.2,0.7,1.9,0.9c4.1,1.5,8.4,0.2,12.4-1.1
					c0.6-0.2,1.5-0.5,2.4-0.4c2.5,0.4,3.3,3.2,3.5,5.2c0.4,2.6,1.1,4.8,2.2,7.2c0.6,1.4,1.3,2.7,2.3,3.4c0,0.1,0.3-0.1,0.6-0.6
					c1.3-1.8,1.9-4.6,2.1-6.8c0.4-2.7-0.7-5.1-0.6-7.8c0-1.4,0.2-2.9,0.5-4.2c0.7-2.8,1.9-5.3,2.8-7.7c1.8-4.9,3.7-9.9,5.5-14.9
					c1.8-4.8,2.5-9.8,2.1-14.9c-0.3-5.4-2-10.1-2.7-15.6c-0.1-1.5-0.1-3.2,0.6-5c1.3-3.4,5.3-5.1,8.6-5.2c2.4-0.2,4.6,0.2,6.8,0
					c0.1,0,0.2-0.1-0.3,0.2c-0.3,0.2-0.5,0.5-0.6,0.9c-0.1,0.3-0.1,0.7-0.1,0.8c0.1,0.4,0.1,0.2,0,0.2c-5.9-5.8-14.4-5.1-22.2-5.8
					c-11.3-1-19.3-10.1-28.9-15.2c-7.4-3.8-16.7-8.4-24.3-3.2c-1,0.6-2.5,1.8-2.9,2.2c-1.6,1.4-2.4,4.2-4.7,4.8
					c-1.9,0.9-4.7,0.3-6.4,0.7c-3.5,1.1-2.6,3.8,0,5.3c2.9,1.6,6,2.7,9.3,3.2c6.4,1.1,14.1,2.9,17.3,9.3c1,2,1.3,4.2,1.6,6.4
					c0.6,2.4,1.8,4.9,3.1,7.1c0.9,1.4,2.1,3.2,3.5,3.8c0,0,0,0,0.1-0.1c1.5-3,0.7-7.2,3.3-9.9c4.9-4.3,10.6,3.9,13.6,7
					c1.9,2.2,3.6,4.6,4.9,7.2C266.3,61,266.5,70.4,263.9,78.6L263.9,78.6z"/>
			</g>
			
				<ellipse transform="matrix(0.2707 -0.9627 0.9627 0.2707 150.7302 225.0572)" class="st2" cx="223.9" cy="13" rx="2.4" ry="2.6"/>
			
				<ellipse transform="matrix(0.2707 -0.9627 0.9627 0.2707 152.5655 226.3503)" class="st3" cx="225.7" cy="12.5" rx="0.7" ry="0.4"/>
			<g>
				<g>
					<path class="st4" d="M222,12.1c-0.5,1.1-0.1,2.3,0.9,3c0.2,0.1,0.4,0,0.5-0.1c0.1-0.2,0-0.4-0.1-0.5h-0.1c0,0-0.1,0,0,0
						l-0.1-0.1l-0.1-0.1l0,0c-0.1-0.1,0,0.1,0,0s-0.1-0.2-0.2-0.3c0,0,0,0,0-0.1s0,0,0,0s0-0.1-0.1-0.2v-0.1c0,0,0,0,0-0.1
						c0,0,0-0.1,0,0c0-0.1,0-0.2,0-0.3c0,0,0,0,0-0.1c0,0,0-0.1,0,0c0,0,0-0.1,0-0.2s0-0.1,0-0.1s0-0.1,0,0v-0.1
						c0.1-0.2,0.1-0.4-0.1-0.5C222.4,11.9,222.1,11.9,222,12.1L222,12.1z"/>
				</g>
			</g>
			<g>
				<g>
					<path d="M214.9,19.8c0.4,0.9,1.2,1.5,2.2,1.5s1.9-0.6,2.2-1.5c0.2-0.5,0.1-1.1-0.1-1.6c-0.1-0.3-0.6-0.4-0.8-0.2
						c-0.3,0.2-0.4,0.5-0.2,0.8c0,0.1,0,0,0,0s0,0,0,0.1c0,0,0,0.1,0,0.2s0-0.1,0,0c0,0,0,0.1,0,0.2c0,0,0,0,0,0.1s0,0,0,0v0.1
						c0,0,0,0.1,0,0.2s0,0,0,0s-0.1,0.2-0.2,0.3c-0.1,0.1,0.1-0.1,0,0l-0.1,0.1c0,0,0,0-0.1,0c0.1,0,0.1-0.1,0,0c0,0-0.1,0-0.1,0.1
						l-0.1,0.1c0.1,0,0.1,0,0,0c0,0,0,0-0.1,0s-0.1,0-0.1,0h-0.1c0.1,0,0.1,0,0,0s-0.2,0-0.3,0s-0.1,0,0,0h-0.1h-0.1
						c-0.1,0-0.1,0-0.2,0h-0.1c0.1,0,0.1,0,0.1,0c-0.1-0.1-0.2-0.1-0.3-0.2h-0.1c0,0,0,0,0.1,0l-0.1-0.1l-0.1-0.1
						c-0.1-0.1,0.1,0.1,0,0l-0.1-0.1c0,0-0.1-0.2,0,0c-0.1-0.3-0.4-0.5-0.7-0.4C215,19.1,214.8,19.4,214.9,19.8L214.9,19.8z"/>
				</g>
			</g>
			<g>
				<g>
					<path d="M224.5,7.8c1.1-0.8,2.7-0.9,4.1-0.6c0.3,0.1,0.6-0.1,0.7-0.4c0.1-0.3-0.1-0.7-0.4-0.7c-1.6-0.3-3.6-0.3-5,0.8
						c-0.3,0.2-0.4,0.5-0.2,0.8C223.9,7.8,224.3,8,224.5,7.8L224.5,7.8z"/>
				</g>
			</g>
			<g>
				<g>
					<path d="M211.4,19.8c0.2,0.9,1.1,1.6,2,1.7s1.9-0.3,2.3-1.2c0.2-0.5,0.3-1,0.1-1.6c-0.1-0.3-0.4-0.5-0.7-0.4s-0.5,0.4-0.4,0.7
						c0,0,0,0.1,0.1,0.2c0,0,0,0,0,0.1c0,0,0,0,0-0.1v0.3c0-0.1,0-0.1,0,0c0,0,0,0,0,0.1v0.1c0,0,0,0,0,0.1c0-0.1,0-0.1,0,0
						c0,0,0,0.1-0.1,0.1l-0.1,0.1l0,0c0,0,0,0-0.1,0.1l-0.1,0.1c0,0,0,0-0.1,0.1c-0.1,0,0,0,0,0c0,0.1-0.2,0.1-0.2,0.1l0,0H214
						c-0.1,0-0.1,0-0.1,0c-0.2,0,0.1,0,0,0h-0.1c-0.1,0-0.1,0-0.2,0c-0.1,0,0.1,0,0,0s-0.2,0-0.3-0.1c-0.1,0,0.1,0,0,0
						s-0.1,0-0.1-0.1c0,0-0.1,0-0.1-0.1H213c0.1,0,0.1,0,0,0c-0.1-0.1-0.1-0.1-0.2-0.2c-0.1-0.1,0.1,0.1,0,0l-0.1-0.1
						c0,0-0.1-0.1,0,0c0,0,0-0.1-0.1-0.2c-0.1-0.3-0.4-0.5-0.7-0.4C211.6,19.1,211.4,19.5,211.4,19.8L211.4,19.8z"/>
				</g>
			</g>
		</g>
		<g>
			<g>
				<g>
					<g>
						<g>
							<polygon points="242.3,48.6 242.9,49.2 242.2,49.8 241.7,49.2 							"/>
							<polygon points="241.8,48 242.3,48.6 241.7,49.2 241.1,48.7 							"/>
							<polygon points="241.2,47.4 241.8,48 241.1,48.7 240.6,48.1 							"/>
							<polygon class="st5" points="240.6,46.9 241.2,47.4 240.6,48.1 240,47.5 							"/>
							<polygon points="240.1,46.3 240.6,46.9 240,47.5 239.4,46.9 							"/>
							<polygon points="241.7,49.2 242.2,49.8 241.6,50.5 241,49.9 							"/>
							<polygon points="241.1,48.7 241.7,49.2 241,49.9 240.5,49.3 							"/>
							<polygon class="st5" points="240.6,48.1 241.1,48.7 240.5,49.3 239.9,48.7 							"/>
							<polygon points="240,47.5 240.6,48.1 239.9,48.7 239.4,48.1 							"/>
							<polygon points="239.4,46.9 240,47.5 239.4,48.1 238.8,47.5 							"/>
							<polygon class="st5" points="238.9,46.3 239.4,46.9 238.8,47.5 238.2,46.9 							"/>
							<polygon class="st6" points="238.3,45.7 238.9,46.3 238.2,46.9 237.7,46.4 							"/>
							<polygon class="st6" points="237.7,45.1 238.3,45.7 237.7,46.4 237.1,45.8 							"/>
							<polygon class="st6" points="237.2,44.5 237.7,45.1 237.1,45.8 236.6,45.2 							"/>
							<polygon class="st6" points="236.6,44 237.2,44.5 236.6,45.2 236,44.6 							"/>
							<polygon points="241,49.9 241.6,50.5 240.9,51.1 240.4,50.5 							"/>
							<polygon class="st5" points="240.5,49.3 241,49.9 240.4,50.5 239.8,49.9 							"/>
							<polygon points="239.9,48.7 240.5,49.3 239.8,49.9 239.3,49.3 							"/>
							<polygon points="239.4,48.1 239.9,48.7 239.3,49.3 238.7,48.7 							"/>
							<polygon class="st5" points="238.8,47.5 239.4,48.1 238.7,48.7 238.2,48.1 							"/>
							<polygon points="238.2,46.9 238.8,47.5 238.2,48.1 237.6,47.6 							"/>
							<polygon class="st7" points="237.7,46.4 238.2,46.9 237.6,47.6 237,47 							"/>
							<polygon class="st7" points="237.1,45.8 237.7,46.4 237,47 236.5,46.4 							"/>
							<polygon class="st7" points="236.6,45.2 237.1,45.8 236.5,46.4 235.9,45.8 							"/>
							<polygon class="st8" points="236,44.6 236.6,45.2 235.9,45.8 235.3,45.2 							"/>
							<polygon class="st6" points="235.4,44 236,44.6 235.3,45.2 234.8,44.6 							"/>
							<polygon class="st6" points="234.9,43.4 235.4,44 234.8,44.6 234.2,44 							"/>
							<polygon class="st6" points="234.3,42.8 234.9,43.4 234.2,44 233.7,43.5 							"/>
							<polygon points="240.4,50.5 240.9,51.1 240.3,51.7 239.7,51.1 							"/>
							<polygon class="st5" points="239.8,49.9 240.4,50.5 239.7,51.1 239.2,50.5 							"/>
							<polygon points="239.3,49.3 239.8,49.9 239.2,50.5 238.6,50 							"/>
							<polygon class="st5" points="238.7,48.7 239.3,49.3 238.6,50 238.1,49.4 							"/>
							<polygon points="238.2,48.1 238.7,48.7 238.1,49.4 237.5,48.8 							"/>
							<polygon points="237.6,47.6 238.2,48.1 237.5,48.8 236.9,48.2 							"/>
							<polygon class="st7" points="237,47 237.6,47.6 236.9,48.2 236.4,47.6 							"/>
							<polygon class="st7" points="236.5,46.4 237,47 236.4,47.6 235.8,47 							"/>
							<polygon class="st7" points="235.9,45.8 236.5,46.4 235.8,47 235.3,46.4 							"/>
							<polygon class="st8" points="235.3,45.2 235.9,45.8 235.3,46.4 234.7,45.8 							"/>
							<polygon class="st8" points="234.8,44.6 235.3,45.2 234.7,45.8 234.1,45.2 							"/>
							<polygon class="st8" points="234.2,44 234.8,44.6 234.1,45.2 233.6,44.7 							"/>
							<polygon class="st9" points="233.7,43.5 234.2,44 233.6,44.7 233,44.1 							"/>
							<polygon class="st10" points="233.1,42.9 233.7,43.5 233,44.1 232.4,43.5 							"/>
							<polygon class="st11" points="232.5,42.3 233.1,42.9 232.4,43.5 231.9,42.9 							"/>
							<polygon class="st10" points="232,41.7 232.5,42.3 231.9,42.9 231.3,42.3 							"/>
							<polygon class="st5" points="239.2,50.5 239.7,51.1 239.1,51.8 238.5,51.2 							"/>
							<polygon points="238.6,50 239.2,50.5 238.5,51.2 238,50.6 							"/>
							<polygon class="st5" points="238.1,49.4 238.6,50 238,50.6 237.4,50 							"/>
							<polygon points="237.5,48.8 238.1,49.4 237.4,50 236.9,49.4 							"/>
							<polygon class="st6" points="236.9,48.2 237.5,48.8 236.9,49.4 236.3,48.8 							"/>
							<polygon class="st7" points="236.4,47.6 236.9,48.2 236.3,48.8 235.7,48.2 							"/>
							<polygon class="st7" points="235.8,47 236.4,47.6 235.7,48.2 235.2,47.6 							"/>
							<polygon class="st8" points="235.3,46.4 235.8,47 235.2,47.6 234.6,47.1 							"/>
							<polygon class="st8" points="234.7,45.8 235.3,46.4 234.6,47.1 234,46.5 							"/>
							<polygon class="st8" points="234.1,45.2 234.7,45.8 234,46.5 233.5,45.9 							"/>
							<polygon class="st8" points="233.6,44.7 234.1,45.2 233.5,45.9 232.9,45.3 							"/>
							<polygon class="st9" points="233,44.1 233.6,44.7 232.9,45.3 232.4,44.7 							"/>
							<polygon class="st9" points="232.4,43.5 233,44.1 232.4,44.7 231.8,44.1 							"/>
							<polygon class="st9" points="231.9,42.9 232.4,43.5 231.8,44.1 231.2,43.5 							"/>
							<polygon class="st9" points="231.3,42.3 231.9,42.9 231.2,43.5 230.7,42.9 							"/>
							<polygon class="st11" points="230.8,41.7 231.3,42.3 230.7,42.9 230.1,42.4 							"/>
							<polygon class="st12" points="230.2,41.1 230.8,41.7 230.1,42.4 229.6,41.8 							"/>
							<polygon class="st12" points="229.6,40.5 230.2,41.1 229.6,41.8 229,41.2 							"/>
							<polygon class="st6" points="235.7,48.2 236.3,48.8 235.7,49.5 235.1,48.9 							"/>
							<polygon class="st6" points="235.2,47.6 235.7,48.2 235.1,48.9 234.5,48.3 							"/>
							<polygon class="st6" points="234.6,47.1 235.2,47.6 234.5,48.3 234,47.7 							"/>
							<polygon class="st8" points="234,46.5 234.6,47.1 234,47.7 233.4,47.1 							"/>
							<polygon class="st8" points="233.5,45.9 234,46.5 233.4,47.1 232.8,46.5 							"/>
							<polygon class="st8" points="232.9,45.3 233.5,45.9 232.8,46.5 232.3,45.9 							"/>
							<polygon class="st9" points="232.4,44.7 232.9,45.3 232.3,45.9 231.7,45.3 							"/>
							<polygon class="st9" points="231.8,44.1 232.4,44.7 231.7,45.3 231.2,44.7 							"/>
							<polygon class="st9" points="231.2,43.5 231.8,44.1 231.2,44.7 230.6,44.2 							"/>
							<polygon class="st9" points="230.7,42.9 231.2,43.5 230.6,44.2 230,43.6 							"/>
							<polygon class="st9" points="230.1,42.4 230.7,42.9 230,43.6 229.5,43 							"/>
							<polygon class="st9" points="229.6,41.8 230.1,42.4 229.5,43 228.9,42.4 							"/>
							<polygon class="st9" points="229,41.2 229.6,41.8 228.9,42.4 228.4,41.8 							"/>
							<polygon class="st12" points="228.4,40.6 229,41.2 228.4,41.8 227.8,41.2 							"/>
							<polygon class="st12" points="227.9,40 228.4,40.6 227.8,41.2 227.2,40.6 							"/>
							<polygon class="st9" points="227.3,39.4 227.9,40 227.2,40.6 226.7,40 							"/>
							<polygon class="st12" points="226.7,38.8 227.3,39.4 226.7,40 226.1,39.5 							"/>
							<polygon class="st13" points="233.4,47.1 234,47.7 233.3,48.3 232.8,47.7 							"/>
							<polygon class="st11" points="232.8,46.5 233.4,47.1 232.8,47.7 232.2,47.1 							"/>
							<polygon class="st11" points="232.3,45.9 232.8,46.5 232.2,47.1 231.6,46.5 							"/>
							<polygon class="st9" points="231.7,45.3 232.3,45.9 231.6,46.5 231.1,46 							"/>
							<polygon class="st9" points="231.2,44.7 231.7,45.3 231.1,46 230.5,45.4 							"/>
							<polygon class="st9" points="230.6,44.2 231.2,44.7 230.5,45.4 229.9,44.8 							"/>
							<polygon class="st9" points="230,43.6 230.6,44.2 229.9,44.8 229.4,44.2 							"/>
							<polygon class="st9" points="229.5,43 230,43.6 229.4,44.2 228.8,43.6 							"/>
							<polygon class="st9" points="228.9,42.4 229.5,43 228.8,43.6 228.3,43 							"/>
							<polygon class="st9" points="228.4,41.8 228.9,42.4 228.3,43 227.7,42.4 							"/>
							<polygon class="st9" points="227.8,41.2 228.4,41.8 227.7,42.4 227.1,41.9 							"/>
							<polygon class="st9" points="227.2,40.6 227.8,41.2 227.1,41.9 226.6,41.3 							"/>
							<polygon class="st14" points="226.7,40 227.2,40.6 226.6,41.3 226,40.7 							"/>
							<polygon class="st9" points="226.1,39.5 226.7,40 226,40.7 225.5,40.1 							"/>
							<polygon class="st14" points="225.5,38.9 226.1,39.5 225.5,40.1 224.9,39.5 							"/>
							<polygon class="st10" points="225,38.3 225.5,38.9 224.9,39.5 224.3,38.9 							"/>
							<polygon class="st14" points="224.4,37.7 225,38.3 224.3,38.9 223.8,38.3 							"/>
							<polygon class="st10" points="223.9,37.1 224.4,37.7 223.8,38.3 223.2,37.7 							"/>
							<polygon class="st13" points="231.1,46 231.6,46.5 231,47.2 230.4,46.6 							"/>
							<polygon class="st10" points="230.5,45.4 231.1,46 230.4,46.6 229.9,46 							"/>
							<polygon class="st10" points="229.9,44.8 230.5,45.4 229.9,46 229.3,45.4 							"/>
							<polygon class="st11" points="229.4,44.2 229.9,44.8 229.3,45.4 228.7,44.8 							"/>
							<polygon class="st9" points="228.8,43.6 229.4,44.2 228.7,44.8 228.2,44.2 							"/>
							<polygon class="st9" points="228.3,43 228.8,43.6 228.2,44.2 227.6,43.6 							"/>
							<polygon class="st9" points="227.7,42.4 228.3,43 227.6,43.6 227.1,43.1 							"/>
							<polygon class="st9" points="227.1,41.9 227.7,42.4 227.1,43.1 226.5,42.5 							"/>
							<polygon class="st9" points="226.6,41.3 227.1,41.9 226.5,42.5 225.9,41.9 							"/>
							<polygon class="st9" points="226,40.7 226.6,41.3 225.9,41.9 225.4,41.3 							"/>
							<polygon class="st9" points="225.5,40.1 226,40.7 225.4,41.3 224.8,40.7 							"/>
							<polygon class="st9" points="224.9,39.5 225.5,40.1 224.8,40.7 224.2,40.1 							"/>
							<polygon class="st9" points="224.3,38.9 224.9,39.5 224.2,40.1 223.7,39.5 							"/>
							<polygon class="st14" points="223.8,38.3 224.3,38.9 223.7,39.5 223.1,39 							"/>
							<polygon class="st15" points="223.2,37.7 223.8,38.3 223.1,39 222.6,38.4 							"/>
							<polygon class="st10" points="222.7,37.1 223.2,37.7 222.6,38.4 222,37.8 							"/>
							<polygon class="st10" points="228.2,44.2 228.7,44.8 228.1,45.5 227.5,44.9 							"/>
							<polygon class="st10" points="227.6,43.6 228.2,44.2 227.5,44.9 227,44.3 							"/>
							<polygon class="st10" points="227.1,43.1 227.6,43.6 227,44.3 226.4,43.7 							"/>
							<polygon class="st10" points="226.5,42.5 227.1,43.1 226.4,43.7 225.9,43.1 							"/>
							<polygon class="st9" points="225.9,41.9 226.5,42.5 225.9,43.1 225.3,42.5 							"/>
							<polygon class="st9" points="225.4,41.3 225.9,41.9 225.3,42.5 224.7,41.9 							"/>
							<polygon class="st9" points="224.8,40.7 225.4,41.3 224.7,41.9 224.2,41.3 							"/>
							<polygon class="st9" points="224.2,40.1 224.8,40.7 224.2,41.3 223.6,40.7 							"/>
							<polygon class="st9" points="223.7,39.5 224.2,40.1 223.6,40.7 223,40.2 							"/>
							<polygon class="st9" points="223.1,39 223.7,39.5 223,40.2 222.5,39.6 							"/>
							<polygon class="st14" points="222.6,38.4 223.1,39 222.5,39.6 221.9,39 							"/>
							<polygon class="st15" points="222,37.8 222.6,38.4 221.9,39 221.4,38.4 							"/>
							<polygon class="st16" points="225.3,42.5 225.9,43.1 225.2,43.7 224.7,43.1 							"/>
							<polygon class="st17" points="224.7,41.9 225.3,42.5 224.7,43.1 224.1,42.6 							"/>
							<polygon class="st16" points="224.2,41.3 224.7,41.9 224.1,42.6 223.5,42 							"/>
							<polygon class="st9" points="223.6,40.7 224.2,41.3 223.5,42 223,41.4 							"/>
							<polygon class="st9" points="223,40.2 223.6,40.7 223,41.4 222.4,40.8 							"/>
							<polygon class="st9" points="222.5,39.6 223,40.2 222.4,40.8 221.8,40.2 							"/>
							<polygon class="st9" points="221.9,39 222.5,39.6 221.8,40.2 221.3,39.6 							"/>
							<polygon class="st14" points="221.4,38.4 221.9,39 221.3,39.6 220.7,39 							"/>
							<polygon class="st16" points="223,41.4 223.5,42 222.9,42.6 222.3,42 							"/>
							<polygon class="st9" points="222.4,40.8 223,41.4 222.3,42 221.7,41.4 							"/>
							<polygon class="st10" points="221.8,40.2 222.4,40.8 221.7,41.4 221.2,40.8 							"/>
							<polygon class="st10" points="221.3,39.6 221.8,40.2 221.2,40.8 220.6,40.2 							"/>
						</g>
					</g>
				</g>
			</g>
		</g>
	</g>
	<text transform="matrix(1 0 0 1 160.0966 92.9258)" class="st18 st19 st20">FAN</text>
	<text transform="matrix(1 0 0 1 9.1913 92.7999)" class="st21 st19 st20">IDOL</text>
	<rect x="2" y="12.5" class="st22" width="134.2" height="22.7"/>
	<text transform="matrix(1 0 0 1 2.0111 27.0806)" class="st23 st19 st24">아이돌팬</text>
</g>
</svg>
